<?xml version="1.0" encoding="utf-8"?>
<!-- Generator: Adobe Illustrator 16.0.0, SVG Export Plug-In . SVG Version: 6.00 Build 0)  -->
<!DOCTYPE svg PUBLIC "-//W3C//DTD SVG 1.1//EN" "http://www.w3.org/Graphics/SVG/1.1/DTD/svg11.dtd">
<svg version="1.1" id="Layer_1" xmlns="http://www.w3.org/2000/svg" xmlns:xlink="http://www.w3.org/1999/xlink" x="0px" y="0px"
	 width="750px" height="750px" viewBox="0 0 750 750" enable-background="new 0 0 750 750" xml:space="preserve">
<g>
	<path fill-rule="evenodd" clip-rule="evenodd" d="M167.269,612.067c-2.145-1.266-5.214-2.398-7.427-1.833
		c-6.151,1.57-12.079,4.034-18.079,6.19c-4.953,1.777-9.818,3.837-14.851,5.338c-2.238,0.667-5.288,0.432-3.803-3.37
		c3.824-9.791,7.817-19.52,11.916-29.199c1.533-3.62,3.104-7.188,0.283-10.677c-2.168-2.679-4.717-5.084-7.309-7.371
		c-1.035-0.912-2.641-1.174-5.069-2.183c0.691,2.322,1.316,3.366,1.233,4.352c-0.2,2.396,0.141,5.773-1.261,6.981
		c-10.471,9.032-21.202,17.776-32.15,26.224c-1.796,1.388-5.059,0.875-7.648,1.208c-1.071,0.138-2.153,0.188-3.229,0.275
		c0.164,1.214-0.121,2.864,0.564,3.562c3.568,3.642,7.352,7.073,11.151,10.478c0.432,0.389,1.432,0.142,2.865,0.232
		c-0.625-1.738-1.365-2.892-1.384-4.058c-0.03-1.759-0.207-4.177,0.803-5.188c7.342-7.347,14.92-14.463,22.572-21.486
		c0.808-0.742,2.585-0.425,3.914-0.597c0.095,1.223,0.64,2.645,0.207,3.635c-1.703,3.899-3.792,7.627-5.593,11.485
		c-3.545,7.594-7.085,15.197-10.392,22.897c-0.538,1.254-0.362,3.388,0.407,4.435c0.538,0.73,2.834,0.782,4.027,0.317
		c11.177-4.348,22.261-8.937,33.438-13.285c2.014-0.782,4.33-0.787,6.507-1.149c0.355,0.679,0.71,1.357,1.065,2.035
		c-4.224,4.227-8.014,9.047-12.777,12.532c-6.356,4.65-9.625,14.026-19.64,12.974c-0.074,0.822-0.343,1.5-0.126,1.747
		c4.432,5.032,8.892,10.043,13.45,14.96c0.367,0.396,1.946,0.382,2.175,0.036c0.47-0.707,0.377-1.776,0.563-2.688
		c0.488-2.381,0.229-5.448,1.632-7.019c7.795-8.73,15.872-17.221,24.119-25.526c3.516-3.542,6.612-8.81,13.233-5.891
		c0.567,0.251,2.265-0.545,2.351-1.043c0.172-0.989-0.084-2.428-0.748-3.119C172.093,616.03,169.909,613.625,167.269,612.067z"/>
	<path fill-rule="evenodd" clip-rule="evenodd" d="M593.757,647.733c-2.499-1.433-3.011-3.221-1.375-5.717
		c4.008-6.117,1.646-11.418-2.558-16.151c-3.709-4.173-8.535-5.149-13.974-4.032c-10.53,2.163-17.352,10.394-25.906,15.765
		c-2.888,1.813-5.204,4.539-7.781,6.847c0.319,0.518,0.641,1.033,0.96,1.549c0.932,0,1.948,0.248,2.782-0.039
		c4.366-1.508,6.83,0.285,9.386,3.938c6.991,9.993,14.399,19.7,21.849,29.359c2.245,2.912,3.393,5.496,1.414,8.983
		c-0.521,0.916-0.112,2.365-0.13,3.569c1.365-0.122,3.087,0.242,4.039-0.449c4.923-3.579,9.697-7.367,14.392-11.239
		c0.826-0.681,1.038-2.107,1.534-3.189c-1.048-0.225-2.095-0.455-3.145-0.676c-1.648-0.342-3.865-0.121-4.85-1.119
		c-3.229-3.28-6.16-6.895-8.874-10.62c-0.783-1.074-1.075-3.359-0.447-4.382c0.672-1.094,2.863-2.098,4.103-1.824
		c2.831,0.624,5.542,1.936,8.209,3.17c9.027,4.187,18.025,8.796,27.6,1.461c1.187-0.909,1.908-2.433,2.846-3.67
		c-1.317-0.683-2.582-1.822-3.957-1.973C610.355,656.266,601.919,652.408,593.757,647.733z M579.354,654.93
		c-0.778,0.776-4.127,0.405-5-0.589c-4.228-4.807-8.277-9.827-11.858-15.132c-2.134-3.158-0.452-6.068,2.685-7.819
		c7.393-4.124,13.252-0.07,17.541,6.821c1.321,2.126,1.394,5.03,2.375,8.918C583.502,649.401,581.771,652.509,579.354,654.93z"/>
	<path fill-rule="evenodd" clip-rule="evenodd" d="M688.556,580.1c-8.555,3.104-16.96-0.095-25.427-0.399
		c-4.811-0.174-6.473-2.385-6.619-7.164c-0.112-3.581-0.807-7.797-2.838-10.547c-6.145-8.311-18.255-7.655-25.594,1.109
		c-5.918,7.071-11.491,14.436-17.143,21.73c-0.775,1.004-1.107,2.355-1.643,3.549c0.134,0.519,0.269,1.04,0.405,1.56
		c6.512-3.987,11.304-1.379,16.037,2.532c7.996,6.609,16.075,13.139,24.42,19.294c4.544,3.354,7.394,6.812,5.117,12.675
		c-0.058,0.146,0.373,0.481,0.582,0.726c3.924-0.753,16.741-17.475,16.057-21.77c-1.405,0.729-2.568,1.726-3.845,1.903
		c-1.955,0.267-4.268,0.562-5.922-0.224c-2.927-1.39-5.663-3.368-8.112-5.516c-1.682-1.472-2.744-3.648-4.081-5.511
		c2.156-1.312,4.202-2.902,6.516-3.82c1.194-0.476,2.867,0.215,4.314,0.43c4.859,0.714,9.693,1.799,14.579,2.1
		c6.812,0.416,10.987-4.555,15.408-8.691c0.599-0.561,0.655-2.209,0.308-3.098C690.859,580.408,689.248,579.849,688.556,580.1z
		 M649.171,587.058c-1.479,4.318-4.177,4.489-7.163,2.485c-4.752-3.184-9.385-6.621-13.664-10.408
		c-4.72-4.18-3.391-9.259,2.671-11.406c1.216-0.432,2.544-0.547,3.073-0.654C645.192,567.089,652.465,577.444,649.171,587.058z"/>
	<path fill-rule="evenodd" clip-rule="evenodd" d="M65.246,426.577c-0.271-10.679-2.169-21.314-3.388-31.966
		c-0.178-1.553-0.674-3.067-1.022-4.599c-0.475-0.169-0.949-0.337-1.424-0.506c-1.991,7.142-7.962,7.5-13.357,8.414
		c-11.359,1.926-22.754,3.676-34.186,5.088c-2.021,0.251-4.351-1.372-6.419-2.373c-1.345-0.651-2.478-1.743-3.706-2.637
		c-0.372,1.623-1.264,3.328-1.028,4.86c1.224,7.933,3.016,15.785,4.083,23.736C6.7,440.77,14.41,450.608,27.679,454.72
		C46.814,460.652,65.786,447.829,65.246,426.577z M7.467,426.156c-2.267-5.45,0.682-10.226,6.457-11.102
		c12.517-1.903,25.018-3.933,37.495-6.078c6.306-1.085,11.521,5.29,10.17,12.716c-1.732,9.525-9.837,17.621-19.401,19.379
		c-3.399,0.622-6.799,1.244-9.514,1.741C20.027,441.576,12.704,438.741,7.467,426.156z"/>
	<path fill-rule="evenodd" clip-rule="evenodd" d="M217.396,651.343c-16.092,0.11-30.873,17.352-29.999,33.067
		c-0.66,19.66,16.731,31.945,33.51,32.275c17.5,0.342,31.812-15.796,31.665-34.197C252.441,666.066,237.79,651.204,217.396,651.343z
		 M223.765,708.25c-6.685,6.084-16.049,4.102-20.818-3.774c-2.13-3.518-3.554-7.463-4.683-9.893
		c2.167-14.589,7.12-25.785,17.188-33.883c4.146-3.336,9.814-5.432,15.286-3.031c6.296,2.767,10.184,7.789,10.121,15.066
		C240.734,687.239,234.107,698.841,223.765,708.25z"/>
	<path fill-rule="evenodd" clip-rule="evenodd" d="M470.123,76.156c16.464,0.372,30.69-12.006,30.979-34.25
		c0.272-7.365-1.957-15.127-8.104-20.555c-5.035-4.446-11.457-7.316-17.264-10.885c-24.771,1.004-38.226,9.745-38.901,33.376
		C436.257,64.033,448.631,75.672,470.123,76.156z M460.359,21.456c3.756-4.296,9.084-7.913,15.328-5.803
		c6.476,2.189,11.06,7.281,11.812,14.062c0.677,6.111,0.298,12.597-1.025,18.605c-1.435,6.5-3.818,12.931-8.884,17.917
		c-4.071,4.006-8.922,7.758-14.329,5.976c-6.124-2.019-10.696-7.101-12.352-13.83c-0.742-3.017-0.841-6.192-1.234-9.295
		C449.631,38.419,453.596,29.198,460.359,21.456z"/>
	<path fill-rule="evenodd" clip-rule="evenodd" d="M673.211,273.543c-0.059,21.972,13.949,33.122,30.833,33.096
		c19.277-0.029,32.479-11.127,33.41-31.597c0.401-8.847-3.413-17.106-9.787-24.105c-7.141-7.84-15.939-8.396-25.556-8.769
		C688.488,241.642,670.971,255.86,673.211,273.543z M728.557,259.63c5.444,5.776,5.277,13.464,0.199,19.553
		c-8.678,10.412-20.504,13.764-33.024,15.383c-8.056,1.041-19.903-6.641-18.122-15.708c0.817-4.146,2.905-8.535,5.679-11.705
		c7.585-8.678,17.474-13.078,30.279-13.107C718.671,253.377,724.088,254.891,728.557,259.63z"/>
	<path fill-rule="evenodd" clip-rule="evenodd" d="M294.467,73.042c15.519-0.023,32.45-11.949,31.833-31.083
		c0.185-20.817-12.188-32.426-29.042-34.15c-18.329-1.875-35.371,13.729-35.541,31.584C261.56,56.064,271.877,73.076,294.467,73.042
		z M276.181,23.581c4.805-10.133,14.592-15.667,25.034-6.328c7.801,6.977,11.825,21.782,13.48,33.011
		c-1.137,3.134-2.093,8.174-4.622,12.228c-4.718,7.569-15.487,8-22.836,1.484C279.571,57.18,270.491,35.579,276.181,23.581z"/>
	<path fill-rule="evenodd" clip-rule="evenodd" d="M166.16,68.133c4.279-0.679,6.714,1.171,8.718,4.802
		c4.698,8.511,10.239,16.598,14.38,25.357c2.46,5.205,8.834,10.436,2.986,17.388c-0.072,0.086,1.774,2.214,2.015,2.082
		c5.367-2.931,10.634-6.046,16.283-9.337c-1.187-1.015-1.624-1.646-1.894-1.582c-7.538,1.814-10.557-3.559-13.719-8.639
		c-1.567-2.519-2.987-5.129-4.471-7.7c-2.225-3.858-4.583-7.65-6.584-11.621c-0.571-1.133-0.104-2.791-0.112-4.208
		c1.361,0.065,2.798-0.129,4.065,0.249c2.832,0.844,5.591,1.942,8.358,2.992c12.443,4.717,24.84,9.561,37.357,14.067
		c1.908,0.687,4.367-0.159,6.572-0.296c-0.351-1.998-0.207-4.271-1.134-5.949c-5.887-10.647-12.304-21.008-17.938-31.783
		c-3.036-5.806-8.054-11.724-3.252-19.074c0.073-0.111-0.307-0.519-0.666-1.09c-5.754,3.262-12.843,4.608-16.669,11.771
		c9.242,0.146,9.369,0.06,14.569,7.77c2.947,4.367,5.566,8.983,7.979,13.67c0.857,1.666,0.667,3.873,0.955,5.833
		c-2.044,0.088-4.206,0.635-6.108,0.156c-2.841-0.716-5.457-2.276-8.243-3.266c-9.243-3.28-18.591-6.272-27.755-9.758
		c-6.012-2.287-16.788,1.03-20.918,7.547C162.902,67.774,164.599,68.38,166.16,68.133z"/>
	<path fill-rule="evenodd" clip-rule="evenodd" d="M336.113,690.204c0.296,0.547,0.454,1.371,0.906,1.59
		c4.723,2.276,5.304,6.332,4.769,10.871c-0.651,5.543-1.188,11.105-2.104,16.604c-0.397,2.38-1.621,4.623-2.469,6.928
		c-1.937-1.575-4.417-2.796-5.717-4.787c-4.942-7.584-9.975-15.175-14.086-23.218c-4.831-9.451-10.682-16.968-22.219-17.501
		c-1.303-0.06-2.642,0.664-3.966,1.025c0.643,1.178,0.987,2.914,1.977,3.448c5.737,3.102,6.266,8.007,5.192,13.614
		c-1.798,9.393-3.352,18.842-5.48,28.157c-1.208,5.292-2.044,11.387-9.403,12.176c-0.309,0.033-0.545,0.755-1.608,2.337
		c7.345,1.354,14.072,2.596,20.801,3.839c0.453-0.615,0.906-1.232,1.36-1.849c-5.115-2.355-7.322-6.059-6.682-11.194
		c0.896-7.189,1.635-14.4,2.568-21.586c0.274-2.107,0.745-4.257,1.57-6.198c0.438-1.029,1.806-2.256,2.792-2.29
		c0.919-0.032,2.214,1.211,2.788,2.211c8.193,14.298,16.224,28.688,24.511,42.929c0.908,1.559,3.159,2.334,4.786,3.473
		c1.033-1.519,2.707-2.926,2.994-4.577c1.931-11.043,3.049-22.255,5.491-33.172c1.438-6.433,0.602-14.175,7.486-18.626
		c0.406-0.261,0.301-2.295-0.24-2.875C349.939,689.176,339.566,688.38,336.113,690.204z"/>
	<path fill-rule="evenodd" clip-rule="evenodd" d="M538.402,108.062c5.327,5.101,13.067,7.781,19.9,11.166
		c6.105,3.024,8.243,2.045,11.405-3.943c2.461-4.658,4.721-9.38,10.128-11.652c2.954-1.239,2.762-3.51,0.059-5.19
		c-2.938-1.827-6.025-3.41-8.965-5.232c-3.003-1.858-5.903-3.876-8.848-5.823c-0.37,0.379-0.737,0.757-1.105,1.136
		c0.24,0.726,0.26,1.729,0.762,2.136c5.678,4.615,3.005,9.212,0.064,13.817c-0.887,1.39-1.856,2.728-2.786,4.091
		c-3.263,4.776-6.487,5.306-11.176,1.833c-8.695-6.443-10.886-14.153-7.565-26.636c2.801-10.526,9.523-18.126,18.746-23.2
		c6.644-3.653,13.697-2.073,19.568,2.321c5.514,4.124,10.133,9.127,7.767,17.178c-0.314,1.072,0.732,2.546,1.148,3.834
		c1.038-0.792,2.302-1.414,3.057-2.42c0.962-1.288,1.304-3.045,2.278-4.317c2.791-3.638,2.043-6.876-1.104-9.597
		c-3.739-3.232-7.52-6.506-11.67-9.154c-12-7.653-28.865-8.46-39.23-0.335C522.844,72.18,522.183,92.535,538.402,108.062z"/>
	<path fill-rule="evenodd" clip-rule="evenodd" d="M532.428,703.248c-0.771,1.085-1.825,2.07-2.249,3.275
		c-0.756,2.136-0.396,5.45-1.789,6.429c-4.604,3.23-9.68,5.869-14.829,8.168c-1.057,0.472-3.899-1.105-4.726-2.465
		c-2.125-3.501-4.083-7.273-5.136-11.2c-0.725-2.702-0.971-7.078,0.588-8.529c3.095-2.875,7.401-5.196,12.148-2.256
		c0.988,0.61,2.231,0.813,3.449,1.236c1.065-6.024-1.81-13.055-6.134-15.36c-0.352,0.897-0.789,1.74-1.018,2.634
		c-1.333,5.241-6.041,8.696-11.265,8.214c-4.634-0.431-11.892-16.25-9.23-20.118c3.367-4.898,13.346-6.187,18.229-2.555
		c1.39,1.034,3.297,1.37,4.968,2.026c-0.143-1.867-0.056-3.792-0.502-5.584c-0.349-1.396-1.354-2.625-2.076-3.927
		c-1.506-2.713-3.459-2.83-6.234-1.668c-9.809,4.105-19.748,7.9-29.577,11.962c-2.041,0.842-3.821,2.318-6.513,3.995
		c1.926,1.073,2.622,1.806,3.283,1.774c4.479-0.208,6.251,2.534,7.7,6.239c3.341,8.567,7.304,16.902,10.389,25.556
		c2.467,6.916,9.422,14.001-0.217,21.442c0.37,0.383,0.736,0.765,1.105,1.148c1.847-0.339,3.785-0.43,5.515-1.078
		c2.451-0.917,4.69-2.39,7.121-3.366c9.327-3.75,18.756-7.261,27.986-11.226c1.447-0.621,2.81-3.087,2.916-4.783
		c0.147-2.36-0.756-4.857-1.549-7.179C534.414,704.974,533.237,704.174,532.428,703.248z"/>
	<path fill-rule="evenodd" clip-rule="evenodd" d="M43.989,206.519c2.759-2.056,5.295-1.788,8.208-0.065
		c10.181,6.019,20.406,11.972,30.761,17.686c5.205,2.871,9.594,5.921,8.021,13.11c0.836,0.559,1.67,1.118,2.507,1.677
		c0.43-1.266,0.657-2.649,1.322-3.776c5.772-9.776,11.834-19.387,17.384-29.286c4.626-8.25,4.385-5.947-1.473-12.985
		c-0.317-0.38-0.573-0.917-0.982-1.095c-1.818-0.795-3.68-1.485-5.526-2.214c0.329,1.878,0.453,3.824,1.041,5.617
		c0.784,2.394,3.303,5.193,2.655,6.893c-1.778,4.666-4.443,9.154-7.573,13.056c-1.063,1.325-4.865,1.512-6.881,0.766
		c-3.482-1.287-6.434-3.947-9.818-5.598c-4.358-2.125-5.637-4.465-3.637-8.886c1.602-3.536,3.892-6.469,8.287-6.963
		c1.002-0.112,2.245-1.221,2.656-2.181c0.214-0.497-1.005-1.861-1.833-2.504c-1.934-1.503-3.891-3.092-6.087-4.101
		c-1.754-0.805-3.877-0.806-5.835-1.163c0.379,1.734,0.363,3.697,1.208,5.162c2.738,4.752-1.23,7.521-3.287,10.45
		c-0.914,1.303-4.523,1.843-6.312,1.16c-3.952-1.51-7.64-3.835-11.218-6.165c-3.531-2.3-3.901-5.566-1.546-8.996
		c3.117-4.538,6.329-8.932,12.726-9.028c0.849-0.013,1.671-1.724,2.507-2.647c-2.728-1.45-5.34-3.311-8.246-4.122
		c-0.993-0.276-3.145,1.824-4.037,3.286c-4.981,8.16-9.765,16.439-14.553,24.715c-1.697,2.933-3.216,5.97-4.815,8.96
		c0.402,0.32,0.804,0.641,1.207,0.96C41.882,207.675,43.036,207.232,43.989,206.519z"/>
	<path fill-rule="evenodd" clip-rule="evenodd" d="M717.636,491.741c0.783,1.361,1.097,2.354,1.754,2.979
		c5.731,5.469,5.641,10.573,1.684,19.569c-2.135,4.855-5.527,6.232-10.557,4.515c-4.037-1.377-7.946-3.222-11.745-5.188
		c-3.499-1.807-4.867-4.736-1.994-8.066c3.015-3.497,6.452-6.63,10.353-10.576c-4.564-1.791-9.751-3.828-14.938-5.866
		c-0.379,0.553-0.756,1.103-1.136,1.654c0.748,1.327,1.55,2.629,2.229,3.99c2.168,4.328,0.25,8.069-2.03,11.533
		c-2.262,3.439-5.338,2.301-8.343,0.889c-2.823-1.327-5.644-2.72-8.583-3.742c-4.737-1.647-6.218-3.926-4.145-8.495
		c2.246-4.954,3.964-10.872,11.52-10.188c0.956,0.087,2.827-1.579,2.908-2.545c0.079-0.974-1.34-2.536-2.465-3.064
		c-5.902-2.771-8.66-1.601-11.272,4.373c-4.463,10.209-8.996,20.388-13.366,30.638c-0.423,0.994,0.097,2.392,0.18,3.603
		c1.143-0.329,2.605-0.314,3.372-1.041c3.298-3.129,6.963-2.7,10.575-1.178c4.942,2.082,9.697,4.604,14.608,6.765
		c3.728,1.642,7.649,2.852,11.35,4.549c6.236,2.854,15.304,3.034,13.669,13.8c-0.041,0.268,0.641,0.646,1.495,1.454
		c0.842-1.343,1.739-2.426,2.258-3.665c1.843-4.398,3.49-8.876,5.336-13.269c3.19-7.603,6.746-15.071,9.527-22.818
		c0.684-1.902-0.28-5.559-1.805-6.835C725.449,493.314,722.619,489.7,717.636,491.741z"/>
	<path fill-rule="evenodd" clip-rule="evenodd" d="M66.09,509.095c4.356-1.908,8.554-4.231,13.016-5.821
		c1.388-0.494,3.935,0.28,5.065,1.384c5.552,5.419,5.978,11.829,1.667,18.481c-1.174,1.813-2.19,3.957,1.027,4.363
		c5.194,0.653,10.083-6.316,7.952-11.107c-3.08-6.923-6.326-13.774-9.385-20.709c-1.261-2.859-2.038-5.938-3.4-8.739
		c-0.56-1.151-2.082-1.834-3.166-2.729c-0.743,0.971-1.375,2.062-2.249,2.896c-2.759,2.627-5.227,5.906-8.497,7.579
		c-7.867,4.026-16.027,7.541-24.26,10.77c-6.36,2.495-13.098,7.582-19.378-0.42c-0.071-0.093-0.575,0.155-1.547,0.44
		c1.423,4.085,2.584,8.273,4.317,12.207c3.625,8.239,7.787,16.246,11.283,24.535c2.94,6.97,10.563,8.631,17.139,2.593
		c-1.443-0.734-2.389-1.6-3.384-1.659c-8.225-0.497-12.051-5.775-14.47-12.842c-1.834-5.359-0.716-8.212,4.541-10.746
		c2.962-1.427,5.917-2.869,8.856-4.341c4.577-2.294,6.252-1.593,8.718,2.76c2.301,4.059,4.301,7.836,0.521,12.121
		c-0.468,0.529-0.334,1.915-0.001,2.701c0.175,0.412,1.531,0.727,2.111,0.493c3.644-1.482,7.275-3.024,10.778-4.804
		c0.801-0.406,1.442-1.817,1.475-2.789c0.019-0.557-1.315-1.646-2.067-1.669c-5.191-0.169-6.398-4.649-8.697-7.88
		C61.87,513.089,62.472,510.679,66.09,509.095z"/>
	<path fill-rule="evenodd" clip-rule="evenodd" d="M131.845,164.143c3.238-0.484,6.691-0.404,9.676-1.549
		c11.522-4.419,20.202-12.264,25.858-23.276c0.648-1.263,0.625-3.229,0.173-4.627c-0.856-2.647-2.04-5.251-3.508-7.611
		c-0.821-1.32-2.485-2.114-3.769-3.146c-0.103,1.578-0.685,3.315-0.224,4.707c2.296,6.944,0.025,17.25-6.146,20.939
		c-4.437,2.652-10.289,5.264-15.036,4.583c-10.621-1.526-18.67-8.163-24.911-17.11c-9.125-13.081-4.924-27.95,9.919-33.306
		c1.867-0.674,4.138-0.338,6.216-0.286c2.558,0.063,5.11,0.321,7.666,0.494c-1.698-2.002-3.252-4.152-5.128-5.969
		c-2.311-2.237-4.718-3.853-8.33-1.871c-9.003,4.938-15.322,12.141-19.939,21.25C93.37,139.052,108.072,163.305,131.845,164.143z"/>
	<path fill-rule="evenodd" clip-rule="evenodd" d="M635.974,181.89c-2.542,14.395,0.978,26.653,11.067,37.305
		c5.994,6.329,11.052,7.737,18.661,3.672c0.952-0.509,1.416-1.937,2.106-2.939c-1.021-0.634-1.984-1.426-3.089-1.847
		c-0.708-0.27-1.636-0.074-2.446,0.05c-7.006,1.065-12.418-2.083-16.179-7.393c-4.657-6.575-4.977-14.329-1.02-21.142
		c5.919-10.192,14.529-17.723,26.711-19.285c7.533-0.966,14.793,0.316,19.755,7.249c4.549,6.359,5.447,12.902,1.539,19.922
		c-0.791,1.42-1.088,3.116-1.721,5.011c7.414-0.861,13.176-7.835,11.087-13.162c-5.787-14.78-18.646-31.983-39.894-29.771
		C651.555,160.707,637.907,170.954,635.974,181.89z"/>
	<path fill-rule="evenodd" clip-rule="evenodd" d="M746.154,413.271c-2.664,3.642-5.984,4.757-10.372,3.438
		c-2.006-0.604-4.267-0.715-6.374-0.556c-6.296,0.475-10.935-2.931-15.635-6.292c-2.539-1.816-5.058-3.662-7.597-5.483
		c-5.38-3.859-10.787-7.682-12.441-14.725c-0.214-0.912-0.787-1.743-1.195-2.611c-0.666,0.284-1.33,0.565-1.993,0.85
		c-0.471,6.099-0.945,12.2-1.408,18.211c3.656-0.66,6.756-2.261,8.736-1.368c4.596,2.069,8.823,5.12,12.868,8.206
		c2.861,2.18,2.583,6.516-0.204,6.707c-7.79,0.531-14.834,11.177-24.078,0.052c-1.022,9.112-1.846,16.459-2.76,24.631
		c5.977-3.275,10.572-6.094,15.422-8.371c5.182-2.437,10.68-4.186,15.898-6.548c7.333-3.32,14.508-1.336,21.78,0.052
		c4.79,0.915,5.769,4.855,7.267,8.479c0.094,0.228,0.552,0.305,2.213,1.146c1.02-9.356,1.972-18.108,3.043-27.955
		C747.45,412.374,746.595,412.67,746.154,413.271z"/>
	<path fill-rule="evenodd" clip-rule="evenodd" d="M12.9,299.672c2.554,0.469,5.183,0.53,7.778,0.774
		c-1.396-1.994-2.604-4.159-4.23-5.941c-2.564-2.807-3.226-9.025,0.032-12.736c1.465-1.667,5.399-2.481,7.718-1.852
		c11.871,3.222,23.439,7.659,35.405,10.39c6.017,1.373,9.051,3.587,9.216,9.633c0.003,0.115,0.536,0.217,1.673,0.648
		c2.563-7.989,5.112-15.931,7.661-23.873c-0.528-0.257-1.057-0.513-1.584-0.77c-0.695,0.353-1.589,0.537-2.053,1.085
		c-2.912,3.444-6.387,4.142-10.666,2.944c-5.817-1.627-11.758-2.808-17.604-4.343c-6.85-1.796-13.691-3.647-20.467-5.7
		c-4.617-1.398-6.167-4.998-3.974-9.283c1.979-3.868,4.342-7.415,9.564-7.502c0.856-0.015,1.678-2.1,2.515-3.228
		c-3.104-0.921-6.198-2.456-9.316-2.507c-1.569-0.025-3.902,2.351-4.628,4.152c-1.591,3.944-2.356,8.222-3.499,12.352
		c-2.626,9.493-5.294,18.974-7.912,28.468C7.447,296.308,8.843,298.926,12.9,299.672z"/>
	<path fill-rule="evenodd" clip-rule="evenodd" d="M433.925,684.629c-14.065,1.545-28.102,3.404-42.1,5.475
		c-1.575,0.233-3.854,2.469-4.035,3.983c-0.374,3.184-1.918,7.142,1.982,9.551c0.614-0.356,0.988-0.452,1.156-0.693
		c0.368-0.536,0.767-1.112,0.919-1.731c1.538-6.33,6.382-7.835,11.964-8.335c3.62-0.327,5.368,1.062,5.77,4.914
		c1.288,12.277,2.836,24.529,4.37,36.779c0.703,5.593,1.385,11.052-5.642,13.341c-0.294,0.094-0.374,0.837-0.552,1.269
		c4.592,2.572,19.602,0.583,21.967-1.974c-1.816-4.464-4.125-8.189-4.815-12.193c-2.18-12.646-3.779-25.392-5.545-38.107
		c-0.476-3.422,0.955-5.672,4.386-6.688c6.074-1.797,10.916,0.445,14.153,6.533c0.558,1.05,1.628,1.872,2.606,2.603
		c0.139,0.102,1.381-0.801,1.654-1.438C444.014,693.608,438.39,684.137,433.925,684.629z"/>
	<path fill-rule="evenodd" clip-rule="evenodd" d="M396.067,61.785c6.743,0.142,10.938-7.508,7.458-15.564
		c-1.15,1.534-2.178,2.656-2.924,3.941c-3.431,5.925-10.446,9.195-16.711,7.698c-5.212-1.246-7.043-4.062-6.963-12.934
		c0.055-6.05,1.056-12.095,1.668-18.136c0.875-8.561-2.812-17.841,4.372-26.031c-7.803,1.375-15.178-2.958-21.745-1.041
		c1.828,5.078,4.399,9.092,4.539,13.189c0.433,12.824,0.135,25.688-0.379,38.516c-0.077,1.952-2.75,3.851-4.339,5.671
		c-0.865,0.991-1.977,1.767-2.977,2.64c1.161,0.69,2.317,1.968,3.484,1.98C373.055,61.833,384.566,61.544,396.067,61.785z"/>
	<path fill-rule="evenodd" clip-rule="evenodd" d="M588.629,142.049c0.228,4.78,12.724,17.741,17.794,19.064
		c0.074-0.974,0.428-1.98,0.171-2.795c-1.26-4.008,0.242-7.036,2.996-9.813c9.173-9.254,18.184-18.677,27.562-27.717
		c1.521-1.466,4.579-1.385,6.955-1.881c1.281-0.268,2.622-0.241,3.937-0.348c-0.442-1.32-0.517-2.998-1.389-3.899
		c-4.015-4.146-8.195-8.136-12.451-12.035c-0.958-0.876-2.454-1.158-4.065-1.873c-0.288,1.495-0.808,2.459-0.525,3.012
		c2.215,4.334-0.234,7.224-2.941,10.022c-6.989,7.224-13.869,14.559-21.07,21.563C600.97,139.856,597.115,146.727,588.629,142.049z"
		/>
	<path fill-rule="evenodd" clip-rule="evenodd" d="M483.786,7.878c1.971,0,4.273,0.637,5.826-0.172
		c1.675-0.874,2.647-3.099,3.927-4.734c-1.818-0.989-3.582-2.617-5.47-2.78c-1.765-0.152-3.76,1.074-5.481,2.012
		c-2.092,1.14-4.004,2.614-5.993,3.943c2.314,0.804,4.628,1.607,6.941,2.412C483.619,8.332,483.702,8.105,483.786,7.878z"/>
	<path fill-rule="evenodd" clip-rule="evenodd" d="M97.673,417.948c10.939,75.019,47.541,135.768,107.475,181.971
		c39.243,30.257,83.507,48.715,133.573,54.721c0-13.612,0-25.693,0-35.848c-23.223-7.643-45.947-13.621-67.417-22.607
		c-21.989-9.203-40.33-24.188-54.562-45.184c106.084,0,210.741,0,316.829,0c-16.271,22.373-36.002,38.014-59.829,47.42
		c-17.382,6.865-35.916,10.766-53.849,16.271c-3.154,0.97-8.264,3.176-8.401,5.103c-0.805,11.2-0.393,22.485-0.393,33.792
		c108.56-7.835,239.313-109.427,244.231-269.412C660.189,226.155,529.315,83.785,353.152,96.11
		C200.312,106.801,72.709,246.731,97.673,417.948z M533.765,405.172c-14.601,15.756-30.013,30.778-45.391,45.791
		c-16.899,16.5-33.145,33.553-44.317,54.576c-5.106,9.607-8.709,20.019-13.383,30.979c-11.547-13.846-15.103-29.559-12.409-46.857
		c4.103-26.332,17.315-47.679,36.371-65.823c26.09-24.839,52.142-49.717,77.946-74.85c6.571-6.401,12.141-13.83,19.078-21.831
		C557.938,356.634,554.243,383.078,533.765,405.172z M552.802,224.804c5.888,13.639,9.379,27.423,7.517,42.346
		c-2.218,17.756-10.479,32.638-22.897,44.991c-36.055,35.868-72.858,70.99-108.495,107.27c-14.987,15.257-28.8,31.945-41.28,49.332
		c-13.807,19.232-21.415,41.169-19.679,66.063c-12.54-12.435-20.56-27.101-23.648-44.243c-5.178-28.747,6.795-52.202,25.449-71.947
		c27.931-29.568,57.532-57.548,86.154-86.469c25.945-26.215,51.822-52.514,77.097-79.372
		C540.461,244.865,545.752,234.925,552.802,224.804z M479.486,277.283c-12.199,15.066-26.458,28.505-40.212,42.25
		c-30.211,30.188-61.114,59.688-90.915,90.271c-22.207,22.79-39.479,49.128-44.024,81.407c-2.023,14.362-0.342,29.247-0.342,44.092
		c-0.656-0.438-2.559-1.343-3.993-2.729c-25.756-24.913-29.861-55.215-21.131-88.287c7.646-28.966,24.827-51.913,45.974-72.613
		c45.046-44.09,89.928-88.365,134.039-133.385c11.776-12.021,20.535-27.01,30.54-40.45
		C501.284,225.333,499.311,252.796,479.486,277.283z M451.638,126.527c10.105,8.607,15.854,18.825,18.669,30.585
		c5.723,23.919-3.901,43.659-19.486,60.314c-22.021,23.529-45.242,45.933-68.047,68.719c-32.241,32.21-65.099,63.823-96.632,96.712
		c-14.912,15.551-25.748,34.385-30.697,55.885c-1.331,5.78-1.821,11.753-2.993,19.621c-17.392-23.426-21.927-46.964-13.342-72.854
		c8.69-26.206,26.356-45.994,45.615-64.833c43.796-42.846,87.734-85.562,130.76-129.175
		C439.109,167.558,446.525,152.197,451.638,126.527z M209.472,310.041c18.552-21.521,39.456-41.029,59.593-61.151
		c25.079-25.059,50.769-49.512,75.565-74.844c17.482-17.858,29.555-38.713,28.494-65.223c17.846,7.652,36.085,36.363,26.228,59.172
		c-4.959,11.481-11.516,23.182-20.175,31.997c-41.34,42.083-83.738,83.122-125.574,124.719
		c-18.143,18.039-34.387,37.944-37.788,64.143c-1.979,15.231,0.398,31.044,1.053,46.589c0.144,3.375,1.302,6.707,2.474,12.386
		c-16.053-15.278-26.108-31.575-31.717-50.498C177.757,364.037,188.019,334.927,209.472,310.041z"/>
</g>
</svg>
